<svg width="2594" height="1066" viewBox="0 0 2594 1066" fill="none" xmlns="http://www.w3.org/2000/svg">
<rect width="2594" height="1066" fill="white"/>
<path d="M2120.8 229.733L2164.28 182.396L2415.13 433.244H2112.99L2120.8 229.733Z" fill="#E9EAE9"/>
<path d="M2594 516.667V1066H466.457L174.737 774.293L1721.73 662.733L2332.97 433.24L2451.07 373.733L2594 516.667Z" fill="#E9EAE9"/>
<path d="M2420.75 484.509H2245.19C2221.85 484.509 2202.75 465.411 2202.75 442.067V402.508C2202.75 379.164 2221.85 360.065 2245.19 360.065H2420.75C2444.1 360.065 2463.2 379.164 2463.2 402.508V442.067C2463.2 465.411 2444.1 484.509 2420.75 484.509Z" fill="#F0BE91"/>
<path d="M2420.75 360.065H2399.2V360.069H2399.19V364.949C2399.19 368.131 2398.38 371.123 2396.94 373.725C2396.69 374.176 2396.43 374.616 2396.14 375.043C2392.88 379.945 2387.3 383.176 2380.98 383.176H2208.08C2208.14 382.665 2208.2 382.167 2208.26 381.659C2215.57 368.792 2229.41 360.065 2245.19 360.065H2420.75Z" fill="#E79F6A"/>
<path d="M2463.19 402.509V456.283C2463.19 478.176 2447.14 496.496 2426.22 500.069C2438.72 507.323 2447.19 520.856 2447.19 536.283V563.843C2447.19 582.216 2435.19 597.923 2418.63 603.509C2426.34 610.603 2431.19 620.763 2431.19 632.003V649.896C2431.19 671.216 2413.75 688.656 2392.44 688.656H2389.08C2397.44 695.936 2402.75 706.642 2402.75 718.522V739.083C2402.75 760.896 2384.91 778.736 2363.1 778.736H2203.28C2200.44 778.736 2197.66 778.416 2194.98 777.843H2039.35C2024.87 777.843 2010.95 772.389 2000.31 762.563C1985.94 749.269 1965.35 707.989 1954.75 707.176H1870.75V424.509H1966.75C1966.75 424.509 2056.08 324.509 2068.08 281.843C2076.99 250.176 2076.35 205.283 2075.43 184.243C2075.11 177.003 2080.11 170.629 2087.22 169.149C2125.08 161.296 2234.67 157.243 2208.08 383.176H2380.98C2391.03 383.176 2399.19 375.016 2399.19 364.949V360.069H2420.75C2444.1 360.069 2463.19 379.163 2463.19 402.509Z" fill="#F0BE91"/>
<path d="M2141.69 171.067C2131.35 167.739 2121.07 166.584 2111.77 166.584C2102.19 166.584 2093.67 167.812 2087.22 169.149C2086.87 169.22 2086.53 169.304 2086.2 169.397C2086.54 169.303 2086.88 169.219 2087.22 169.147C2093.67 167.809 2102.19 166.584 2111.78 166.584C2121.07 166.584 2131.35 167.737 2141.69 171.067Z" fill="#FBEEE2"/>
<path d="M2208.08 383.176H2168.57C2159.35 383.176 2152.15 375.246 2152.99 366.07C2165.71 227.533 2123.71 182.781 2083.26 170.586C2084.18 170.094 2085.16 169.692 2086.2 169.397C2086.53 169.304 2086.87 169.22 2087.22 169.149C2093.67 167.812 2102.19 166.584 2111.77 166.584C2121.07 166.584 2131.35 167.738 2141.69 171.066C2183.28 184.46 2225.75 233.041 2208.08 383.176Z" fill="#EBAD7D"/>
<path d="M2392.44 688.657H2389.09C2389.09 688.657 2389.09 688.656 2389.08 688.656H2392.44C2413.75 688.656 2431.19 671.216 2431.19 649.896V632.003C2431.19 622.636 2427.82 614.02 2422.24 607.303C2427.83 614.021 2431.19 622.639 2431.19 632.007V649.901C2431.19 671.217 2413.75 688.657 2392.44 688.657ZM2438.65 589.108C2444 582.076 2447.19 573.313 2447.19 563.843V536.283C2447.19 520.856 2438.72 507.323 2426.22 500.069C2426.22 500.068 2426.22 500.068 2426.22 500.068C2438.73 507.326 2447.2 520.863 2447.2 536.288V563.843C2447.2 573.316 2444.01 582.077 2438.65 589.108ZM2453.39 484.032C2459.51 476.417 2463.19 466.759 2463.19 456.283V442.689C2463.19 442.481 2463.2 442.275 2463.2 442.067V402.508V427.608V442.067V456.276C2463.2 466.756 2459.52 476.416 2453.39 484.032Z" fill="#E3D6CB"/>
<path d="M2463.19 442.689V402.509C2463.19 379.163 2444.1 360.069 2420.75 360.069H2399.2V360.065H2420.75C2444.1 360.065 2463.2 379.164 2463.2 402.508V442.067C2463.2 442.275 2463.19 442.481 2463.19 442.689Z" fill="#E3915C"/>
<path d="M2363.1 778.73H2306.21C2328.02 778.73 2345.86 760.889 2345.86 739.082V718.528C2345.86 706.641 2340.55 695.941 2332.2 688.657H2335.55C2356.87 688.657 2374.31 671.217 2374.31 649.901V632.006C2374.31 620.764 2369.45 610.604 2361.74 603.508C2378.3 597.92 2390.31 582.221 2390.31 563.842V536.288C2390.31 520.861 2381.84 507.324 2369.33 500.065C2390.25 496.491 2406.31 478.173 2406.31 456.276V442.066V427.608V402.508C2406.31 392.055 2402.47 382.46 2396.14 375.042C2396.43 374.616 2396.69 374.176 2396.94 373.725C2398.38 371.124 2399.2 368.134 2399.2 364.953V360.069H2420.75C2444.1 360.069 2463.19 379.162 2463.19 402.509V442.689V456.283C2463.19 466.759 2459.51 476.417 2453.39 484.032C2446.71 492.331 2437.13 498.201 2426.22 500.065C2426.22 500.067 2426.22 500.066 2426.22 500.068C2426.22 500.068 2426.22 500.068 2426.22 500.069C2438.72 507.322 2447.19 520.856 2447.19 536.283V563.842C2447.19 573.313 2444 582.076 2438.65 589.108C2433.61 595.718 2426.65 600.8 2418.63 603.508C2419.91 604.69 2421.12 605.958 2422.24 607.302C2427.82 614.02 2431.19 622.636 2431.19 632.002V649.896C2431.19 671.216 2413.75 688.656 2392.44 688.656H2389.08C2389.09 688.656 2389.09 688.657 2389.09 688.657C2397.44 695.941 2402.75 706.641 2402.75 718.528V739.082C2402.75 739.349 2402.75 739.614 2402.74 739.88C2402.31 761.322 2384.64 778.73 2363.1 778.73Z" fill="#EBAD7D"/>
<path d="M1913.42 707.176H1886.75V424.509H1964.08L1929.39 450.988C1919.32 458.669 1913.42 470.604 1913.42 483.265V707.176Z" fill="#EBAD7D"/>
<path d="M1886.75 423.483V763.749C1886.75 772.029 1880.04 778.736 1871.78 778.736H1673.11C1664.83 778.736 1658.12 772.029 1658.12 763.749V423.483C1658.12 415.216 1664.83 408.509 1673.11 408.509H1871.78C1880.04 408.509 1886.75 415.216 1886.75 423.483Z" fill="#306FB6"/>
<path d="M1871.78 778.736H1673.11C1664.83 778.736 1658.12 772.029 1658.12 763.749V707.176H1774.84C1775.57 722.021 1786.16 734.272 1800.21 737.508C1804.93 740.132 1810.36 741.626 1816.14 741.626C1834.26 741.626 1848.95 726.937 1848.95 708.816C1848.95 708.267 1848.93 707.719 1848.91 707.176H1886.75V763.749C1886.75 772.029 1880.04 778.736 1871.78 778.736Z" fill="#295BA4"/>
<path d="M1848.91 707.176H1840.38C1840.4 706.633 1840.42 706.085 1840.42 705.535C1840.42 705.511 1840.42 705.487 1840.42 705.463C1840.42 705.457 1840.42 705.452 1840.42 705.445C1840.42 705.421 1840.42 705.399 1840.42 705.375C1840.42 705.372 1840.42 705.368 1840.42 705.367C1840.41 705.344 1840.41 705.321 1840.41 705.3C1840.41 705.295 1840.41 705.289 1840.41 705.284C1840.41 705.26 1840.41 705.236 1840.41 705.212C1840.41 705.209 1840.41 705.205 1840.41 705.203C1840.41 705.18 1840.41 705.157 1840.41 705.135C1840.41 705.131 1840.41 705.128 1840.41 705.124C1840.41 705.099 1840.41 705.073 1840.41 705.048C1840.41 705.047 1840.41 705.045 1840.41 705.044C1840.41 705.019 1840.41 704.992 1840.41 704.965C1840.21 692.864 1833.45 682.359 1823.53 676.843C1837.58 680.08 1848.18 692.331 1848.91 707.176Z" fill="#2858A2"/>
<path d="M1816.14 741.626C1810.36 741.626 1804.93 740.132 1800.21 737.508C1802.59 738.056 1805.06 738.345 1807.61 738.345C1825.18 738.345 1839.52 724.534 1840.38 707.176H1848.91C1848.93 707.718 1848.95 708.266 1848.95 708.816C1848.95 726.937 1834.26 741.626 1816.14 741.626Z" fill="#244B91"/>
<path d="M1840.42 705.535C1840.42 723.656 1825.73 738.345 1807.61 738.345C1789.49 738.345 1774.8 723.656 1774.8 705.535C1774.8 687.415 1789.49 672.725 1807.61 672.725C1825.73 672.725 1840.42 687.415 1840.42 705.535Z" fill="#3988C2"/>
<path d="M1807.61 738.345C1789.49 738.345 1774.8 723.656 1774.8 705.535L1774.81 705.351C1779.34 714.076 1788.45 720.045 1798.96 720.045C1814 720.045 1826.19 707.856 1826.19 692.817C1826.19 685.989 1823.66 679.763 1819.5 674.984C1831.57 679.687 1840.18 691.293 1840.41 704.965C1840.41 704.992 1840.41 705.019 1840.41 705.044C1840.41 705.045 1840.41 705.047 1840.41 705.048C1840.41 705.075 1840.41 705.099 1840.41 705.124C1840.41 705.128 1840.41 705.131 1840.41 705.135C1840.41 705.157 1840.41 705.18 1840.41 705.203C1840.41 705.205 1840.41 705.209 1840.41 705.212C1840.41 705.236 1840.41 705.26 1840.41 705.284C1840.41 705.289 1840.41 705.295 1840.41 705.3C1840.41 705.323 1840.41 705.343 1840.42 705.367C1840.42 705.368 1840.42 705.372 1840.42 705.375C1840.42 705.397 1840.42 705.421 1840.42 705.445C1840.42 705.451 1840.42 705.457 1840.42 705.463C1840.42 705.487 1840.42 705.512 1840.42 705.535C1840.42 723.656 1825.73 738.345 1807.61 738.345Z" fill="#3277B1"/>
<path d="M1805.47 682.08C1808.5 685.368 1807.21 691.484 1802.59 695.739C1797.97 699.995 1791.77 700.78 1788.74 697.492C1785.71 694.205 1787 688.089 1791.62 683.833C1796.24 679.577 1802.44 678.793 1805.47 682.08Z" fill="white"/>
<rect x="160.109" y="408.515" width="1551.05" height="370.221" rx="27" fill="#306FB6"/>
<path d="M160.109 707.176H1728.46V778.736H187.109C172.197 778.736 160.109 766.648 160.109 751.736V707.176Z" fill="#295BA4"/>
</svg>
