<svg width="1066" height="1066" preserveAspectRatio="none"  viewBox="0 0 1066 1066" fill="none" xmlns="http://www.w3.org/2000/svg">
<g clip-path="url(#clip0_2_110)">
<rect width="1066" height="1066" fill="white"/>
<path d="M619.019 229.733L662.503 182.396L913.35 433.244H611.214L619.019 229.733Z" fill="#E9EAE9"/>
<path d="M1092.22 516.667V1066H452.394L160.674 774.293L219.954 662.733L831.194 433.24L949.287 373.733L1092.22 516.667Z" fill="#E9EAE9"/>
<path d="M918.974 484.509H743.414C720.071 484.509 700.971 465.411 700.971 442.067V402.508C700.971 379.164 720.071 360.065 743.414 360.065H918.974C942.317 360.065 961.417 379.164 961.417 402.508V442.067C961.417 465.411 942.317 484.509 918.974 484.509Z" fill="#F0BE91"/>
<path d="M918.974 360.065H897.417V360.069H897.411V364.949C897.411 368.131 896.597 371.123 895.165 373.725C894.915 374.176 894.649 374.616 894.365 375.043C891.099 379.945 885.523 383.176 879.198 383.176H706.305C706.365 382.665 706.423 382.167 706.482 381.659C713.794 368.792 727.635 360.065 743.414 360.065H918.974Z" fill="#E79F6A"/>
<path d="M961.411 402.509V456.283C961.411 478.176 945.358 496.496 924.438 500.069C936.944 507.323 945.411 520.856 945.411 536.283V563.843C945.411 582.216 933.411 597.923 916.851 603.509C924.558 610.603 929.411 620.763 929.411 632.003V649.896C929.411 671.216 911.971 688.656 890.665 688.656H887.304C895.664 695.936 900.971 706.643 900.971 718.523V739.083C900.971 760.896 883.131 778.736 861.318 778.736H701.505C698.665 778.736 695.878 778.416 693.198 777.843H537.571C523.091 777.843 509.171 772.389 498.531 762.563C484.158 749.269 463.571 707.989 452.971 707.176H368.971V424.509H464.971C464.971 424.509 554.305 324.509 566.305 281.843C575.211 250.176 574.571 205.283 573.651 184.243C573.331 177.003 578.331 170.629 585.438 169.149C623.305 161.296 732.891 157.243 706.305 383.176H879.198C889.251 383.176 897.411 375.016 897.411 364.949V360.069H918.971C942.318 360.069 961.411 379.163 961.411 402.509Z" fill="#F0BE91"/>
<path d="M639.909 171.067C629.571 167.739 619.289 166.584 609.995 166.584C600.414 166.584 591.886 167.812 585.438 169.149C585.094 169.22 584.755 169.304 584.422 169.397C584.757 169.303 585.098 169.219 585.443 169.147C591.895 167.809 600.415 166.584 609.998 166.584C619.291 166.584 629.573 167.737 639.909 171.067Z" fill="#FBEEE2"/>
<path d="M706.305 383.176H666.786C657.571 383.176 650.37 375.247 651.211 366.071C663.931 227.533 621.934 182.781 581.478 170.587C582.402 170.095 583.385 169.692 584.422 169.397C584.755 169.304 585.094 169.22 585.438 169.149C591.886 167.812 600.414 166.584 609.995 166.584C619.289 166.584 629.571 167.739 639.909 171.067C681.499 184.46 723.967 233.041 706.305 383.176Z" fill="#EBAD7D"/>
<path d="M890.659 688.657H887.307C887.306 688.657 887.306 688.656 887.305 688.656H890.665C911.971 688.656 929.411 671.216 929.411 649.896V632.003C929.411 622.636 926.042 614.02 920.459 607.303C926.046 614.021 929.415 622.639 929.415 632.007V649.901C929.415 671.217 911.975 688.657 890.659 688.657ZM936.866 589.108C942.223 582.076 945.411 573.313 945.411 563.843V536.283C945.411 520.856 936.945 507.323 924.438 500.069C924.441 500.068 924.443 500.068 924.445 500.068C936.951 507.327 945.417 520.863 945.417 536.288V563.843C945.417 573.316 942.226 582.077 936.866 589.108ZM951.61 484.032C957.735 476.417 961.411 466.759 961.411 456.283V442.689C961.415 442.481 961.417 442.275 961.417 442.067V402.508V427.608V442.067V456.276C961.417 466.756 957.738 476.416 951.61 484.032Z" fill="#E3D6CB"/>
<path d="M961.411 442.689V402.509C961.411 379.163 942.318 360.069 918.971 360.069H897.417V360.065H918.974C942.317 360.065 961.417 379.164 961.417 402.508V442.067C961.417 442.275 961.415 442.481 961.411 442.689Z" fill="#E3915C"/>
<path d="M861.323 778.731H804.434C826.241 778.731 844.082 760.889 844.082 739.083V718.528C844.082 706.641 838.774 695.941 830.418 688.657H833.771C855.087 688.657 872.527 671.217 872.527 649.901V632.007C872.527 620.764 867.673 610.604 859.961 603.508C876.517 597.92 888.527 582.221 888.527 563.843V536.288C888.527 520.861 880.061 507.324 867.553 500.065C888.47 496.491 904.527 478.173 904.527 456.276V442.067V427.608V402.508C904.527 392.055 900.69 382.46 894.365 375.043C894.649 374.616 894.915 374.176 895.165 373.725C896.598 371.124 897.417 368.135 897.417 364.953V360.069H918.971C942.318 360.069 961.411 379.163 961.411 402.509V442.689V456.283C961.411 466.759 957.735 476.417 951.61 484.032C944.933 492.331 935.349 498.201 924.441 500.065C924.443 500.067 924.443 500.067 924.445 500.068C924.443 500.068 924.441 500.068 924.438 500.069C936.945 507.323 945.411 520.856 945.411 536.283V563.843C945.411 573.313 942.223 582.076 936.866 589.108C931.827 595.719 924.871 600.8 916.849 603.508C918.134 604.691 919.342 605.959 920.459 607.303C926.042 614.02 929.411 622.636 929.411 632.003V649.896C929.411 671.216 911.971 688.656 890.665 688.656H887.305C887.306 688.656 887.306 688.657 887.307 688.657C895.662 695.941 900.971 706.641 900.971 718.528V739.083C900.971 739.349 900.969 739.615 900.963 739.88C900.535 761.323 882.863 778.731 861.323 778.731Z" fill="#EBAD7D"/>
<path d="M411.638 707.176H384.971V424.509H462.305L427.609 450.988C417.543 458.669 411.638 470.604 411.638 483.265V707.176Z" fill="#EBAD7D"/>
<path d="M384.971 423.483V763.749C384.971 772.029 378.265 778.736 369.998 778.736H171.331C163.051 778.736 156.345 772.029 156.345 763.749V423.483C156.345 415.216 163.051 408.509 171.331 408.509H369.998C378.265 408.509 384.971 415.216 384.971 423.483Z" fill="#306FB6"/>
<path d="M369.998 778.736H171.331C163.051 778.736 156.345 772.029 156.345 763.749V707.176H273.057C273.787 722.021 284.385 734.272 298.43 737.508C303.146 740.132 308.577 741.627 314.357 741.627C332.478 741.627 347.167 726.937 347.167 708.816C347.167 708.267 347.154 707.719 347.127 707.176H384.971V763.749C384.971 772.029 378.265 778.736 369.998 778.736Z" fill="#295BA4"/>
<path d="M347.127 707.176H338.597C338.623 706.633 338.637 706.085 338.637 705.535C338.637 705.511 338.637 705.487 338.637 705.463C338.637 705.457 338.637 705.452 338.637 705.445C338.637 705.421 338.637 705.399 338.637 705.375C338.637 705.372 338.637 705.368 338.637 705.367C338.635 705.344 338.635 705.321 338.635 705.3C338.635 705.295 338.635 705.289 338.635 705.284C338.635 705.26 338.635 705.236 338.635 705.212C338.635 705.209 338.635 705.205 338.635 705.203C338.634 705.18 338.634 705.157 338.634 705.135C338.634 705.131 338.634 705.128 338.634 705.124C338.634 705.099 338.634 705.073 338.633 705.048C338.633 705.047 338.633 705.045 338.633 705.044C338.633 705.019 338.633 704.992 338.631 704.965C338.426 692.864 331.667 682.359 321.753 676.843C335.798 680.08 346.397 692.331 347.127 707.176Z" fill="#2858A2"/>
<path d="M314.357 741.627C308.577 741.627 303.146 740.132 298.43 737.508C300.807 738.056 303.282 738.345 305.826 738.345C323.397 738.345 337.742 724.535 338.597 707.176H347.127C347.154 707.719 347.167 708.267 347.167 708.816C347.167 726.937 332.478 741.627 314.357 741.627Z" fill="#244B91"/>
<path d="M338.637 705.535C338.637 723.656 323.947 738.345 305.826 738.345C287.706 738.345 273.017 723.656 273.017 705.535C273.017 687.415 287.706 672.725 305.826 672.725C323.947 672.725 338.637 687.415 338.637 705.535Z" fill="#3988C2"/>
<path d="M305.826 738.345C287.706 738.345 273.017 723.656 273.017 705.535L273.026 705.351C277.562 714.076 286.667 720.045 297.182 720.045C312.219 720.045 324.409 707.856 324.409 692.817C324.409 685.989 321.877 679.763 317.723 674.984C329.787 679.687 338.398 691.293 338.631 704.965C338.633 704.992 338.633 705.019 338.633 705.044C338.633 705.045 338.633 705.047 338.633 705.048C338.634 705.075 338.634 705.099 338.634 705.124C338.634 705.128 338.634 705.131 338.634 705.135C338.634 705.157 338.634 705.18 338.635 705.203C338.635 705.205 338.635 705.209 338.635 705.212C338.635 705.236 338.635 705.26 338.635 705.284C338.635 705.289 338.635 705.295 338.635 705.3C338.635 705.323 338.635 705.343 338.637 705.367C338.637 705.368 338.637 705.372 338.637 705.375C338.637 705.397 338.637 705.421 338.637 705.445C338.637 705.451 338.637 705.457 338.637 705.463C338.637 705.487 338.637 705.512 338.637 705.535C338.637 723.656 323.947 738.345 305.826 738.345Z" fill="#3277B1"/>
<path d="M303.693 682.08C306.722 685.368 305.43 691.484 300.81 695.739C296.19 699.995 289.989 700.78 286.961 697.492C283.933 694.205 285.223 688.089 289.845 683.833C294.465 679.577 300.665 678.793 303.693 682.08Z" fill="white"/>
</g>
<defs>
<clipPath id="clip0_2_110">
<rect width="1066" height="1066" fill="white"/>
</clipPath>
</defs>
</svg>
